<?xml version="1.0" encoding="UTF-8"?>
<svg version="1.1" xmlns="http://www.w3.org/2000/svg" width="200" height="250" viewBox="540 160 310 340">
  <g id="logo-group">
    <path d="M0 0 C3.8 1.2 3.9 2.2 5.7 5.7 C6.2 6.8 6.7 7.8 7.2 8.8 C7.8 9.9 8.3 11 8.9 12.1 C10.1 14.5 11.3 16.8 12.4 19.1 C13 20.3 13.6 21.4 14.2 22.6 C16.6 27.3 19.1 31.8 21.6 36.4 C27.3 46.6 32.7 57 38.2 67.3 C43.3 77 48.5 86.7 54 96.3 C57 101.6 57 101.6 57 105 C56 105.3 55.1 105.6 54.1 106 C44.3 109.6 34.6 113.5 25 117.6 C20.9 119.4 16.8 121.1 12.6 122.9 C11.8 123.2 11 123.6 10.1 123.9 C7.7 124.9 5.3 125.9 3 127 C2.2 127.3 1.5 127.6 0.7 127.9 C-3.6 129.8 -8.1 131.6 -12.6 133.5 C-13.8 134 -14.9 134.5 -16 134.9 C-17 135.4 -18 135.8 -19.1 136.2 C-20 136.6 -20.8 136.9 -21.7 137.3 C-24 138 -24 138 -27 137 C-28.3 134.8 -28.3 134.8 -29.7 132 C-30.3 131 -30.8 129.9 -31.3 128.9 C-31.9 127.8 -32.4 126.7 -33 125.5 C-37.9 115.9 -37.9 115.9 -43.1 106.5 C-43.6 105.6 -44 104.8 -44.5 104 C-45.4 102.5 -46.3 101 -47.2 99.5 C-48.4 97.5 -48.4 97.5 -50 94 C-48.3 88.6 -45.2 83.6 -42.6 78.6 C-41.8 77.1 -41.8 77.1 -41 75.5 C-36.8 67.4 -32.3 59.5 -27.8 51.6 C-23.5 44 -19.4 36.2 -15.4 28.4 C-10.4 18.8 -5.2 9.4 0 0 Z" fill="#803480" transform="translate(691,166)"/>
    <path d="M0 0 C2.4 2.2 3.8 4.3 5.2 7.3 C5.7 8.2 6.1 9 6.5 9.9 C7 10.9 7.4 11.8 7.9 12.8 C11.6 20.3 15.4 27.8 19.5 35.2 C24.7 44.7 29.8 54.2 34.9 63.8 C41.6 76.6 48.5 89.4 55.4 102.1 C57 105.1 58.7 108.2 60.3 111.2 C61.4 113.3 62.6 115.4 63.7 117.5 C64.2 118.4 64.8 119.4 65.3 120.5 C68.9 127.1 72.6 133.8 76.4 140.3 C79 144.7 79 144.7 79 147 C56.2 147 33.4 147 10 147 C9.9 136.3 9.9 136.3 9.9 125.5 C9.9 123.3 9.9 121 9.9 118.7 C9.9 117 9.9 115.2 9.9 113.5 C9.8 112.5 9.8 111.6 9.8 110.7 C9.8 109.3 9.8 109.3 9.8 108 C9.8 107.2 9.8 106.5 9.8 105.7 C10 104 10 104 11 103 C12.4 102.9 13.8 102.8 15.2 102.9 C16.5 102.9 16.5 102.9 17.8 102.9 C19.1 102.9 19.1 102.9 20.5 102.9 C21.4 102.9 22.3 102.9 23.2 102.9 C25.5 102.9 27.7 102.9 30 103 C30 97.3 30 91.7 30 86 C11.5 86 -6.9 86 -26 86 C-26 91.9 -26 97.8 -26 104 C-19.7 104 -13.4 104 -7 104 C-7 118.1 -7 132.3 -7 147 C-30.7 147 -54.5 147 -79 147 C-78 143 -76.5 139.9 -74.6 136.3 C-74.2 135.7 -73.9 135 -73.5 134.4 C-72.4 132.3 -71.3 130.2 -70.1 128.1 C-69.4 126.6 -68.6 125.2 -67.8 123.7 C-62.5 113.8 -57.2 104 -51.8 94.2 C-48.7 88.5 -45.6 82.7 -42.5 77 C-37.8 68.4 -33.2 59.9 -28.5 51.4 C-25.8 46.4 -23.1 41.4 -20.4 36.4 C-13.9 24.1 -7.2 11.9 0 0 Z" fill="#803987" transform="translate(634,274)"/>
    <path d="M0 0 C6.3 1.6 12.7 3.4 19 5.3 C24.8 7 30.6 8.7 36.5 10.3 C37.5 10.6 37.5 10.6 38.7 10.9 C42.1 11.9 45.5 12.8 48.9 13.8 C60.5 17 72.1 20.2 83.6 24 C87.8 25.3 92 26.5 96.3 27.6 C100.5 28.6 104.7 29.6 108.9 30.8 C109.9 31 111 31.3 112 31.6 C119.4 35 122.5 43.4 126.1 50.2 C127.3 52.4 128.4 54.5 129.6 56.7 C130.2 57.7 130.7 58.8 131.3 59.9 C133.6 64.1 135.9 68.3 138.2 72.5 C138.6 73.2 139 73.9 139.4 74.6 C141.4 78.3 143.5 81.9 145.6 85.5 C146.2 86.7 146.2 86.7 146.8 87.8 C147.6 89.2 148.5 90.6 149.3 92 C152 96.7 152 96.7 152 99 C119.3 99 86.6 99 53 99 C48 89.4 43.1 79.8 38 70 C33.2 61.5 33.2 61.5 28.3 53 C23.9 45.2 19.8 37.4 15.7 29.5 C11.2 21 6.5 12.6 1.4 4.4 C0 2 0 2 0 0 Z" fill="#A0CB4C" transform="translate(675,322)"/>
    <path d="M0 0 C0 30.6 0 61.3 0 93 C-5.1 92.3 -9.5 91.7 -14.4 90.5 C-15.6 90.1 -16.9 89.8 -18.2 89.5 C-19.1 89.3 -19.1 89.3 -20.1 89 C-34.6 85.4 -49 82.1 -63.5 78.8 C-76 76 -88.4 73.2 -100.8 70 C-108 68.2 -115.3 66.5 -122.5 64.8 C-148.6 58.9 -148.6 58.9 -153 56 C-152.6 55 -152.3 54 -152 53 C-149.1 51.7 -146.3 50.6 -143.4 49.6 C-142.5 49.3 -141.6 49 -140.7 48.7 C-137.8 47.7 -135 46.7 -132.1 45.7 C-130.3 45.1 -128.4 44.4 -126.6 43.8 C-122 42.1 -117.3 40.5 -112.7 38.9 C-100.8 34.8 -89 30.6 -77.1 26.3 C-70.3 23.8 -63.4 21.4 -56.5 19.1 C-51.9 17.6 -47.4 16 -42.9 14.1 C-37.9 12.2 -32.8 10.4 -27.7 8.7 C-21.4 6.5 -15.2 4.2 -9 1.7 C-5.7 0.5 -3.6 0 0 0 Z" fill="#F17536" transform="translate(821,256)"/>
    <path d="M0 0 C3.1 3.1 4.8 6.2 6.8 10.1 C7.3 11.2 7.3 11.2 7.9 12.3 C8.6 13.8 9.4 15.3 10.2 16.9 C12.2 20.9 14.3 24.9 16.3 28.9 C16.7 29.7 17.1 30.5 17.5 31.3 C21.1 38.2 24.7 45 28.5 51.8 C32.7 59.5 36.8 67.2 41 75 C45.6 83.7 50.3 92.5 55.1 101.2 C59.3 108.9 63.5 116.6 67.6 124.3 C68.6 126 69.5 127.7 70.4 129.4 C71 130.4 71.5 131.5 72.1 132.5 C72.6 133.5 73.1 134.4 73.6 135.3 C74.9 137.8 75.9 140.4 77 143 C54.2 143 31.4 143 8 143 C7.9 135.9 7.9 128.8 7.9 121.5 C7.9 119.3 7.9 117 7.9 114.7 C7.9 113 7.9 111.2 7.9 109.5 C7.8 108.5 7.8 107.6 7.8 106.7 C7.8 105.3 7.8 105.3 7.8 104 C7.8 103.2 7.8 102.5 7.8 101.7 C8 100 8 100 9 99 C10.4 98.9 11.8 98.8 13.2 98.9 C14.5 98.9 14.5 98.9 15.8 98.9 C16.7 98.9 17.6 98.9 18.5 98.9 C19.4 98.9 20.3 98.9 21.2 98.9 C23.5 98.9 25.7 98.9 28 99 C28 93 28 87.1 28 81 C18.7 81 9.5 81 0 81 C0 54.2 0 27.5 0 0 Z" fill="#1E364F" transform="translate(636,278)"/>
    <path d="M0 0 C0.9 0.3 1.9 0.6 3 1 C3.1 11.3 3.1 21.7 3.1 32.1 C3.1 36.9 3.1 41.7 3.1 46.5 C3.2 51.2 3.2 55.8 3.2 60.5 C3.1 62.2 3.2 64 3.2 65.8 C3.3 74.9 3.4 81.4 -2.8 88.4 C-4.5 89.9 -6.2 91.4 -8 93 C-9.2 94.3 -10.4 95.8 -11.6 97.2 C-14.4 100.3 -17.2 103.3 -20.2 106.2 C-25.1 111.1 -29.5 116.6 -34 122 C-37.8 117 -40.7 111.5 -43.8 106 C-44.4 104.9 -45 103.8 -45.7 102.7 C-46.2 101.7 -46.8 100.6 -47.4 99.5 C-47.9 98.6 -48.5 97.6 -49 96.7 C-50 94 -50 94 -49.3 91.4 C-48.8 90.6 -48.4 89.8 -48 89 C-47.4 87.8 -47.4 87.8 -46.8 86.6 C-45.4 83.9 -44 81.3 -42.6 78.6 C-41.8 77.1 -41.8 77.1 -41 75.5 C-36.8 67.4 -32.3 59.5 -27.8 51.6 C-23.5 44 -19.4 36.2 -15.4 28.4 C-10.4 18.8 -5.2 9.4 0 0 Z" fill="#AB408C" transform="translate(691,166)"/>
    <path d="M0 0 C0 10.5 0 21.1 0 32 C-2.3 32.3 -4.6 32.7 -7 33.1 C-23.5 35.6 -39.9 38.3 -56.3 41 C-78.9 44.8 -101.5 48.4 -124.2 51.6 C-133.8 52.9 -143.4 54.4 -153 56 C-152.6 55 -152.3 54 -152 53 C-149.1 51.7 -146.3 50.6 -143.4 49.6 C-142.5 49.3 -141.6 49 -140.7 48.7 C-137.8 47.7 -135 46.7 -132.1 45.7 C-130.3 45.1 -128.4 44.4 -126.6 43.8 C-122 42.1 -117.3 40.5 -112.7 38.9 C-100.8 34.8 -89 30.6 -77.1 26.3 C-70.3 23.8 -63.4 21.4 -56.5 19.1 C-51.9 17.6 -47.4 16 -42.9 14.1 C-37.9 12.2 -32.8 10.4 -27.7 8.7 C-21.4 6.5 -15.2 4.2 -9 1.7 C-5.7 0.5 -3.6 0 0 0 Z" fill="#F7B43D" transform="translate(821,256)"/>
    <path d="M0 0 C3 1 3 1 4.6 2.6 C7.9 5.9 11.7 8.6 15.5 11.3 C17.2 12.6 19 13.8 20.7 15.1 C21.5 15.7 22.4 16.4 23.3 17 C26.6 19.4 29.9 21.9 33.2 24.3 C50.9 37.4 68.8 50.3 87 63 C86.4 66.3 85.3 67.9 82.9 70.3 C82.3 70.9 81.6 71.5 81 72.1 C78.4 74.5 75.7 76.8 73.1 79.1 C70.7 81.1 68.6 83.3 66.4 85.5 C59 92.9 59 92.9 55 96 C52.9 95.9 52.9 95.9 51 95 C49.4 92.7 49.4 92.7 48 89.8 C47.4 88.7 46.9 87.6 46.3 86.4 C46 85.8 45.7 85.3 45.4 84.7 C43.9 81.5 42.3 78.4 40.7 75.3 C40.4 74.7 40.1 74.1 39.8 73.4 C36.9 67.7 33.8 62.2 30.6 56.6 C24.7 46.4 19.2 36.1 13.7 25.7 C10 18.8 6.3 12 2.4 5.3 C0 1.1 0 1.1 0 0 Z" fill="#2F9270" transform="translate(676,324)"/>
    <path d="M0 0 C1.9 0 3.9 0 6 0 C6 0.6 6 1.3 6 2 C6.8 1.9 7.7 1.9 8.6 1.9 C20.1 1.8 31.5 2.4 43 3.1 C48.7 3.5 54.5 3.8 60.2 4.2 C61.3 4.2 62.5 4.3 63.7 4.4 C76.7 5.1 89.7 5.7 102.7 6.3 C109.9 6.6 117.1 7 124.4 7.7 C129.4 8.2 134.5 8.3 139.6 8.5 C145.2 8.7 145.2 8.7 151 9 C151 18.2 151 27.4 151 37 C145.7 37 142.5 36.8 137.6 35.6 C136.4 35.2 135.1 34.9 133.8 34.6 C133.2 34.4 132.5 34.3 131.8 34.1 C128.2 33.2 124.5 32.3 120.9 31.4 C120.1 31.2 119.3 31 118.5 30.8 C108.5 28.3 98.4 26.1 88.4 23.8 C75.9 21 63.5 18.2 51.1 15 C43.9 13.2 36.6 11.5 29.4 9.8 C4.2 4.1 4.2 4.1 0 2 C0 1.3 0 0.6 0 0 Z" fill="#E7413D" transform="translate(669,311)"/>
    <path d="M0 0 C8.4 3.2 16.6 6.6 24.7 10.8 C29.9 13.5 35.2 16 40.6 18.5 C48.6 22.2 56.3 26.4 64 31 C64 31.6 64 32.3 64 33 C31.3 33 -1.3 33 -35 33 C-33.3 31.6 -31.7 30.3 -30 29 C-28.9 28 -27.9 27.1 -26.9 26.2 C-26.3 25.7 -25.8 25.2 -25.2 24.7 C-24.7 24.2 -24.1 23.7 -23.6 23.1 C-23 22.6 -22.4 22.1 -21.8 21.5 C-18.3 18.3 -14.9 15 -11.6 11.5 C-9 9.1 -6.4 6.8 -3.6 4.5 C-1.7 2.9 -1.7 2.9 0 0 Z" fill="#86C054" transform="translate(763,388)"/>
    
    <text x="695" y="475" font-family="Verdana, Geneva, sans-serif" font-size="34" font-weight="bold" fill="#1E364F" text-anchor="middle">Test Prism</text>
  </g>
</svg>
